<?xml version="1.0" encoding="UTF-8" standalone="no"?>
<!-- Created with Inkscape (http://www.inkscape.org/) -->

<svg
   xmlns:dc="http://purl.org/dc/elements/1.1/"
   xmlns:cc="http://creativecommons.org/ns#"
   xmlns:rdf="http://www.w3.org/1999/02/22-rdf-syntax-ns#"
   xmlns:svg="http://www.w3.org/2000/svg"
   xmlns="http://www.w3.org/2000/svg"
   xmlns:sodipodi="http://sodipodi.sourceforge.net/DTD/sodipodi-0.dtd"
   xmlns:inkscape="http://www.inkscape.org/namespaces/inkscape"
   width="210mm"
   height="297mm"
   viewBox="0 0 210 297"
   version="1.1"
   id="svg8"
   inkscape:version="0.92.4 (5da689c313, 2019-01-14)"
   sodipodi:docname="ban1.svg"
   inkscape:export-filename="D:\Chriss\Projets\ICOOk\Media\images\ban1.png"
   inkscape:export-xdpi="96"
   inkscape:export-ydpi="96">
  <defs
     id="defs2" />
  <sodipodi:namedview
     id="base"
     pagecolor="#ffffff"
     bordercolor="#666666"
     borderopacity="1.0"
     inkscape:pageopacity="0.0"
     inkscape:pageshadow="2"
     inkscape:zoom="0.86951686"
     inkscape:cx="426.67528"
     inkscape:cy="773.14793"
     inkscape:document-units="mm"
     inkscape:current-layer="layer1"
     showgrid="false"
     inkscape:window-width="1366"
     inkscape:window-height="745"
     inkscape:window-x="-8"
     inkscape:window-y="-8"
     inkscape:window-maximized="1" />
  <metadata
     id="metadata5">
    <rdf:RDF>
      <cc:Work
         rdf:about="">
        <dc:format>image/svg+xml</dc:format>
        <dc:type
           rdf:resource="http://purl.org/dc/dcmitype/StillImage" />
        <dc:title />
      </cc:Work>
    </rdf:RDF>
  </metadata>
  <g
     inkscape:label="Calque 1"
     inkscape:groupmode="layer"
     id="layer1">
    <path
       style="opacity:1;fill:#ffc107;fill-opacity:0.98623855;fill-rule:evenodd;stroke:#666666;stroke-width:0.08280227;stroke-miterlimit:4;stroke-dasharray:none;stroke-dashoffset:0;stroke-opacity:0;paint-order:fill markers stroke"
       d="M -6.3448512,77.462014 C -8.2714462,65.06454 21.715129,59.789693 35.285242,65.683445 c 5.630506,2.445433 173.243588,55.158915 127.037688,17.684438 -32.8424,-26.636249 38.53606,-0.121456 50.56946,-1.27485 2e-5,-22.961367 -1.5119,-49.122101 -1.5119,-72.083471 H -5.7978632 Z"
       id="rect815"
       inkscape:connector-curvature="0"
       sodipodi:nodetypes="csscccc"
       inkscape:export-xdpi="47.722233"
       inkscape:export-ydpi="47.722233" />
    <path
       inkscape:export-ydpi="47.722233"
       inkscape:export-xdpi="47.722233"
       inkscape:connector-curvature="0"
       id="use5116-3"
       d="m 190.72516,28.246002 c 2.3584,0.789679 2.12874,-2.302237 3.4435,-3.02381 0.20533,-0.112689 0.52637,0.17818 0.68871,0 0.16232,-0.178179 -0.16233,-0.577771 0,-0.755952 0.91825,-1.007935 0.6887,1.259921 0.6887,-0.755951"
       style="fill:#ffffff;stroke:#000000;stroke-width:0.25253984px;stroke-linecap:butt;stroke-linejoin:miter;stroke-opacity:1" />
    <path
       inkscape:export-ydpi="47.722233"
       inkscape:export-xdpi="47.722233"
       inkscape:connector-curvature="0"
       id="use5116-3-6"
       d="m 193.78708,56.049797 c 2.3584,0.789679 2.12874,-2.302237 3.4435,-3.02381 0.20533,-0.112689 0.52637,0.17818 0.68871,0 0.16232,-0.178179 -0.16233,-0.577771 0,-0.755952 0.91825,-1.007935 0.6887,1.259921 0.6887,-0.755951"
       style="fill:#ffffff;stroke:#000000;stroke-width:0.25253984px;stroke-linecap:butt;stroke-linejoin:miter;stroke-opacity:1" />
    <path
       inkscape:export-ydpi="47.722233"
       inkscape:export-xdpi="47.722233"
       inkscape:connector-curvature="0"
       id="use5116-3-0"
       d="m 160.10211,19.901924 c 2.3584,0.78968 2.12874,-2.302236 3.4435,-3.023809 0.20533,-0.112689 0.52637,0.17818 0.68871,0 0.16232,-0.178179 -0.16233,-0.577771 0,-0.755952 0.91825,-1.007935 0.6887,1.259921 0.6887,-0.755951"
       style="fill:#ffffff;stroke:#000000;stroke-width:0.25253984px;stroke-linecap:butt;stroke-linejoin:miter;stroke-opacity:1" />
    <path
       inkscape:export-ydpi="47.722233"
       inkscape:export-xdpi="47.722233"
       inkscape:connector-curvature="0"
       id="use5116-3-7"
       d="m 156.28421,53.016453 c 2.3584,0.789679 2.12874,-2.302237 3.4435,-3.02381 0.20533,-0.112689 0.52637,0.17818 0.68871,0 0.16232,-0.178179 -0.16233,-0.577771 0,-0.755952 0.91825,-1.007935 0.6887,1.259921 0.6887,-0.755951"
       style="fill:#ffffff;stroke:#000000;stroke-width:0.25253984px;stroke-linecap:butt;stroke-linejoin:miter;stroke-opacity:1" />
    <path
       inkscape:export-ydpi="47.722233"
       inkscape:export-xdpi="47.722233"
       inkscape:connector-curvature="0"
       id="use5116-3-3"
       d="m 139.3013,84.590474 c 2.3584,0.789679 2.12874,-2.302237 3.4435,-3.02381 0.20533,-0.112689 0.52637,0.17818 0.68871,0 0.16232,-0.178179 -0.16233,-0.577771 0,-0.755952 0.91825,-1.007935 0.6887,1.259921 0.6887,-0.755951"
       style="fill:#ffffff;stroke:#000000;stroke-width:0.25253984px;stroke-linecap:butt;stroke-linejoin:miter;stroke-opacity:1" />
    <path
       inkscape:export-ydpi="47.722233"
       inkscape:export-xdpi="47.722233"
       inkscape:connector-curvature="0"
       id="use5116-3-02"
       d="m -0.95388441,17.486691 c 2.35840001,0.789679 2.12874001,-2.302237 3.44350001,-3.02381 0.2053302,-0.112689 0.52637,0.17818 0.6887102,0 0.16232,-0.178179 -0.1623301,-0.577771 0,-0.755952 0.9182499,-1.007935 0.6886998,1.259921 0.6886998,-0.755951"
       style="fill:#ffffff;stroke:#000000;stroke-width:0.25253984px;stroke-linecap:butt;stroke-linejoin:miter;stroke-opacity:1" />
    <path
       inkscape:export-ydpi="47.722233"
       inkscape:export-xdpi="47.722233"
       inkscape:connector-curvature="0"
       id="use5116-3-90"
       d="m 13.290436,36.680254 c 2.3584,0.789679 2.12874,-2.302237 3.4435,-3.02381 0.20533,-0.112689 0.52637,0.17818 0.68871,0 0.16232,-0.178179 -0.16233,-0.577771 0,-0.755952 0.91825,-1.007935 0.6887,1.259921 0.6887,-0.755951"
       style="fill:#ffffff;stroke:#000000;stroke-width:0.25253984px;stroke-linecap:butt;stroke-linejoin:miter;stroke-opacity:1" />
    <path
       inkscape:export-ydpi="47.722233"
       inkscape:export-xdpi="47.722233"
       inkscape:connector-curvature="0"
       id="use5116-3-4"
       d="m 25.594621,27.756201 c 2.3584,0.789679 2.12874,-2.302237 3.4435,-3.02381 0.20533,-0.112689 0.52637,0.17818 0.68871,0 0.16232,-0.178179 -0.16233,-0.577771 0,-0.755952 0.91825,-1.007935 0.6887,1.259921 0.6887,-0.755951"
       style="fill:#ffffff;stroke:#000000;stroke-width:0.25253984px;stroke-linecap:butt;stroke-linejoin:miter;stroke-opacity:1" />
    <path
       inkscape:export-ydpi="47.722233"
       inkscape:export-xdpi="47.722233"
       inkscape:connector-curvature="0"
       id="use5116-3-45"
       d="m 22.375765,55.793178 c 2.3584,0.789679 2.12874,-2.302237 3.4435,-3.02381 0.20533,-0.112689 0.52637,0.17818 0.68871,0 0.16232,-0.178179 -0.16233,-0.577771 0,-0.755952 0.91825,-1.007935 0.6887,1.259921 0.6887,-0.755951"
       style="fill:#ffffff;stroke:#000000;stroke-width:0.25253984px;stroke-linecap:butt;stroke-linejoin:miter;stroke-opacity:1" />
    <path
       inkscape:export-ydpi="47.722233"
       inkscape:export-xdpi="47.722233"
       inkscape:connector-curvature="0"
       id="use5116-3-05"
       d="m 45.306587,63.433341 c 2.3584,0.789679 2.12874,-2.302237 3.4435,-3.02381 0.20533,-0.112689 0.52637,0.17818 0.68871,0 0.16232,-0.178179 -0.16233,-0.577771 0,-0.755952 0.91825,-1.007935 0.6887,1.259921 0.6887,-0.755951"
       style="fill:#ffffff;stroke:#000000;stroke-width:0.25253984px;stroke-linecap:butt;stroke-linejoin:miter;stroke-opacity:1" />
    <path
       inkscape:export-ydpi="47.722233"
       inkscape:export-xdpi="47.722233"
       inkscape:connector-curvature="0"
       id="use5116-3-77"
       d="m 17.954459,16.397849 c 2.3584,0.789679 2.12874,-2.302237 3.4435,-3.02381 0.205331,-0.112689 0.52637,0.17818 0.688711,0 0.16232,-0.178179 -0.162331,-0.577771 0,-0.755952 0.918249,-1.007935 0.688699,1.259921 0.688699,-0.755951"
       style="fill:#ffffff;stroke:#000000;stroke-width:0.25253984px;stroke-linecap:butt;stroke-linejoin:miter;stroke-opacity:1" />
    <path
       inkscape:export-ydpi="47.722233"
       inkscape:export-xdpi="47.722233"
       inkscape:connector-curvature="0"
       id="use5116-3-8"
       d="m 38.893109,38.182625 c 2.3584,0.789679 2.12874,-2.302237 3.4435,-3.02381 0.20533,-0.112689 0.52637,0.17818 0.68871,0 0.16232,-0.178179 -0.16233,-0.577771 0,-0.755952 0.91825,-1.007935 0.6887,1.259921 0.6887,-0.755951"
       style="fill:#ffffff;stroke:#000000;stroke-width:0.25253984px;stroke-linecap:butt;stroke-linejoin:miter;stroke-opacity:1" />
    <path
       inkscape:export-ydpi="47.722233"
       inkscape:export-xdpi="47.722233"
       inkscape:connector-curvature="0"
       id="use5116-3-01"
       d="m 32.769243,62.458905 c 2.3584,0.789679 2.12874,-2.302237 3.4435,-3.02381 0.20533,-0.112689 0.52637,0.17818 0.68871,0 0.16232,-0.178179 -0.16233,-0.577771 0,-0.755952 0.91825,-1.007935 0.6887,1.259921 0.6887,-0.755951"
       style="fill:#ffffff;stroke:#000000;stroke-width:0.25253984px;stroke-linecap:butt;stroke-linejoin:miter;stroke-opacity:1" />
    <path
       inkscape:export-ydpi="47.722233"
       inkscape:export-xdpi="47.722233"
       inkscape:connector-curvature="0"
       id="use5116-3-2"
       d="m 43.913458,49.089315 c 2.3584,0.789679 2.12874,-2.302237 3.4435,-3.02381 0.20533,-0.112689 0.52637,0.17818 0.68871,0 0.16232,-0.178179 -0.16233,-0.577771 0,-0.755952 0.91825,-1.007935 0.6887,1.259921 0.6887,-0.755951"
       style="fill:#ffffff;stroke:#000000;stroke-width:0.25253984px;stroke-linecap:butt;stroke-linejoin:miter;stroke-opacity:1" />
    <path
       inkscape:export-ydpi="47.722233"
       inkscape:export-xdpi="47.722233"
       inkscape:connector-curvature="0"
       id="use5116-3-38"
       d="m 66.601563,18.05713 c 2.3584,0.789679 2.12874,-2.302237 3.4435,-3.02381 0.20533,-0.112689 0.52637,0.17818 0.68871,0 0.16232,-0.178179 -0.16233,-0.577771 0,-0.755952 0.91825,-1.007935 0.6887,1.259921 0.6887,-0.755951"
       style="fill:#ffffff;stroke:#000000;stroke-width:0.25253984px;stroke-linecap:butt;stroke-linejoin:miter;stroke-opacity:1" />
    <path
       inkscape:export-ydpi="47.722233"
       inkscape:export-xdpi="47.722233"
       inkscape:connector-curvature="0"
       id="use5116-3-08"
       d="m 102.32637,72.21955 c 2.3584,0.789679 2.12874,-2.302237 3.4435,-3.02381 0.20533,-0.112689 0.52637,0.17818 0.68871,0 0.16232,-0.178179 -0.16233,-0.577771 0,-0.755952 0.91825,-1.007935 0.6887,1.259921 0.6887,-0.755951"
       style="fill:#ffffff;stroke:#000000;stroke-width:0.25253984px;stroke-linecap:butt;stroke-linejoin:miter;stroke-opacity:1" />
    <path
       inkscape:export-ydpi="47.722233"
       inkscape:export-xdpi="47.722233"
       inkscape:connector-curvature="0"
       id="use5116-3-92"
       d="m 80.688973,74.939072 c 2.3584,0.789679 2.12874,-2.302237 3.4435,-3.02381 0.20533,-0.112689 0.52637,0.17818 0.68871,0 0.16232,-0.178179 -0.16233,-0.577771 0,-0.755952 0.91825,-1.007935 0.6887,1.259921 0.6887,-0.755951"
       style="fill:#ffffff;stroke:#000000;stroke-width:0.25253984px;stroke-linecap:butt;stroke-linejoin:miter;stroke-opacity:1" />
    <path
       inkscape:export-ydpi="47.722233"
       inkscape:export-xdpi="47.722233"
       inkscape:connector-curvature="0"
       id="use5116-3-19"
       d="m 118.07743,70.403358 c 2.3584,0.789679 2.12874,-2.302237 3.4435,-3.02381 0.20533,-0.112689 0.52637,0.17818 0.68871,0 0.16232,-0.178179 -0.16233,-0.577771 0,-0.755952 0.91825,-1.007935 0.6887,1.259921 0.6887,-0.755951"
       style="fill:#ffffff;stroke:#000000;stroke-width:0.25253984px;stroke-linecap:butt;stroke-linejoin:miter;stroke-opacity:1" />
    <path
       inkscape:export-ydpi="47.722233"
       inkscape:export-xdpi="47.722233"
       inkscape:connector-curvature="0"
       id="use5116-3-88"
       d="m 172.45397,52.702631 c 2.3584,0.789679 2.12874,-2.302237 3.4435,-3.02381 0.20533,-0.112689 0.52637,0.17818 0.68871,0 0.16232,-0.178179 -0.16233,-0.577771 0,-0.755952 0.91825,-1.007935 0.6887,1.259921 0.6887,-0.755951"
       style="fill:#ffffff;stroke:#000000;stroke-width:0.25253984px;stroke-linecap:butt;stroke-linejoin:miter;stroke-opacity:1" />
    <path
       inkscape:export-ydpi="47.722233"
       inkscape:export-xdpi="47.722233"
       inkscape:connector-curvature="0"
       id="use5116-3-29"
       d="m 123.20782,25.184058 c 2.3584,0.789679 2.12874,-2.302237 3.4435,-3.02381 0.20533,-0.112689 0.52637,0.17818 0.68871,0 0.16232,-0.178179 -0.16233,-0.577771 0,-0.755952 0.91825,-1.007935 0.6887,1.259921 0.6887,-0.755951"
       style="fill:#ffffff;stroke:#000000;stroke-width:0.25253984px;stroke-linecap:butt;stroke-linejoin:miter;stroke-opacity:1" />
    <path
       inkscape:export-ydpi="47.722233"
       inkscape:export-xdpi="47.722233"
       inkscape:connector-curvature="0"
       id="use5116-3-73"
       d="m 113.47061,15.817875 c 2.3584,0.789679 2.12874,-2.302237 3.4435,-3.02381 0.20533,-0.112689 0.52637,0.17818 0.68871,0 0.16232,-0.178179 -0.16233,-0.577771 0,-0.755952 0.91825,-1.007935 0.6887,1.259921 0.6887,-0.755951"
       style="fill:#ffffff;stroke:#000000;stroke-width:0.25253984px;stroke-linecap:butt;stroke-linejoin:miter;stroke-opacity:1" />
    <path
       inkscape:export-ydpi="47.722233"
       inkscape:export-xdpi="47.722233"
       inkscape:connector-curvature="0"
       id="use5116-3-98"
       d="m 142.40138,26.862407 c 2.3584,0.78968 2.12874,-2.302236 3.4435,-3.023809 0.20533,-0.112689 0.52637,0.17818 0.68871,0 0.16232,-0.178179 -0.16233,-0.577771 0,-0.755952 0.91825,-1.007935 0.6887,1.259921 0.6887,-0.755951"
       style="fill:#ffffff;stroke:#000000;stroke-width:0.25253984px;stroke-linecap:butt;stroke-linejoin:miter;stroke-opacity:1" />
    <path
       inkscape:export-ydpi="47.722233"
       inkscape:export-xdpi="47.722233"
       inkscape:connector-curvature="0"
       id="use5116-3-85"
       d="m 164.60922,35.225554 c 2.3584,0.789679 2.12874,-2.302237 3.4435,-3.02381 0.20533,-0.112689 0.52637,0.17818 0.68871,0 0.16232,-0.178179 -0.16233,-0.577771 0,-0.755952 0.91825,-1.007935 0.6887,1.259921 0.6887,-0.755951"
       style="fill:#ffffff;stroke:#000000;stroke-width:0.25253984px;stroke-linecap:butt;stroke-linejoin:miter;stroke-opacity:1" />
    <path
       inkscape:export-ydpi="47.722233"
       inkscape:export-xdpi="47.722233"
       inkscape:connector-curvature="0"
       id="use5116-3-803"
       d="m 177.17519,14.767168 c 2.3584,0.789679 2.12874,-2.302237 3.4435,-3.02381 0.20533,-0.112689 0.52637,0.17818 0.68871,0 0.16232,-0.178179 -0.16233,-0.57777 0,-0.755951 0.91825,-1.0079366 0.6887,1.25992 0.6887,-0.755952"
       style="fill:#ffffff;stroke:#000000;stroke-width:0.25253984px;stroke-linecap:butt;stroke-linejoin:miter;stroke-opacity:1" />
    <path
       inkscape:export-ydpi="47.722233"
       inkscape:export-xdpi="47.722233"
       inkscape:connector-curvature="0"
       id="use5116-3-78"
       d="m 200.60018,36.67072 c 2.3584,0.789679 2.12874,-2.302237 3.4435,-3.02381 0.20533,-0.112689 0.52637,0.17818 0.68871,0 0.16232,-0.178179 -0.16233,-0.577771 0,-0.755952 0.91825,-1.007935 0.6887,1.259921 0.6887,-0.755951"
       style="fill:#ffffff;stroke:#000000;stroke-width:0.25253984px;stroke-linecap:butt;stroke-linejoin:miter;stroke-opacity:1" />
    <path
       inkscape:export-ydpi="47.722233"
       inkscape:export-xdpi="47.722233"
       inkscape:connector-curvature="0"
       id="use5116-3-145"
       d="m 149.48064,37.897405 c 2.3584,0.789679 2.12874,-2.302237 3.4435,-3.02381 0.20533,-0.112689 0.52637,0.17818 0.68871,0 0.16232,-0.178179 -0.16233,-0.577771 0,-0.755952 0.91825,-1.007935 0.6887,1.259921 0.6887,-0.755951"
       style="fill:#ffffff;stroke:#000000;stroke-width:0.25253984px;stroke-linecap:butt;stroke-linejoin:miter;stroke-opacity:1" />
    <path
       inkscape:export-ydpi="47.722233"
       inkscape:export-xdpi="47.722233"
       inkscape:connector-curvature="0"
       id="use5116-3-79"
       d="m 139.84831,16.112628 c 2.3584,0.789679 2.12874,-2.302237 3.4435,-3.02381 0.20533,-0.112689 0.52637,0.17818 0.68871,0 0.16232,-0.178179 -0.16233,-0.577771 0,-0.755952 0.91825,-1.007935 0.6887,1.259921 0.6887,-0.755951"
       style="fill:#ffffff;stroke:#000000;stroke-width:0.25253984px;stroke-linecap:butt;stroke-linejoin:miter;stroke-opacity:1" />
    <path
       inkscape:export-ydpi="47.722233"
       inkscape:export-xdpi="47.722233"
       inkscape:connector-curvature="0"
       id="use5116-3-39"
       d="m 203.15326,19.754548 c 2.3584,0.789679 2.12874,-2.302237 3.4435,-3.02381 0.20533,-0.112689 0.52637,0.17818 0.68871,0 0.16232,-0.178179 -0.16233,-0.577771 0,-0.755952 0.91825,-1.007935 0.6887,1.259921 0.6887,-0.755951"
       style="fill:#ffffff;stroke:#000000;stroke-width:0.25253984px;stroke-linecap:butt;stroke-linejoin:miter;stroke-opacity:1" />
    <path
       inkscape:export-ydpi="47.722233"
       inkscape:export-xdpi="47.722233"
       inkscape:connector-curvature="0"
       id="use5116-3-12"
       d="m 176.69493,29.581929 c 2.3584,0.789679 2.12874,-2.302237 3.4435,-3.02381 0.20533,-0.112689 0.52637,0.17818 0.68871,0 0.16232,-0.178179 -0.16233,-0.577771 0,-0.755952 0.91825,-1.007935 0.6887,1.259921 0.6887,-0.755951"
       style="fill:#ffffff;stroke:#000000;stroke-width:0.25253984px;stroke-linecap:butt;stroke-linejoin:miter;stroke-opacity:1" />
    <path
       inkscape:export-ydpi="47.722233"
       inkscape:export-xdpi="47.722233"
       inkscape:connector-curvature="0"
       id="use5116-3-52"
       d="m 97.163014,18.085733 c 2.358403,0.789679 2.128743,-2.302237 3.443506,-3.02381 0.20533,-0.112689 0.52637,0.17818 0.68871,0 0.16232,-0.178179 -0.16233,-0.577771 0,-0.755952 0.91825,-1.007935 0.6887,1.259921 0.6887,-0.755951"
       style="fill:#ffffff;stroke:#000000;stroke-width:0.25253984px;stroke-linecap:butt;stroke-linejoin:miter;stroke-opacity:1" />
    <path
       inkscape:export-ydpi="47.722233"
       inkscape:export-xdpi="47.722233"
       inkscape:connector-curvature="0"
       id="use5116-3-33"
       d="m 107.14731,30.337881 c 2.3584,0.789679 2.12874,-2.302237 3.4435,-3.02381 0.20533,-0.112689 0.52637,0.17818 0.68871,0 0.16232,-0.178179 -0.16233,-0.57777 0,-0.755951 0.91825,-1.007936 0.6887,1.25992 0.6887,-0.755952"
       style="fill:#ffffff;stroke:#000000;stroke-width:0.25253984px;stroke-linecap:butt;stroke-linejoin:miter;stroke-opacity:1" />
    <path
       inkscape:export-ydpi="47.722233"
       inkscape:export-xdpi="47.722233"
       inkscape:connector-curvature="0"
       id="use5116-3-31"
       d="m 81.601837,26.006748 c 2.3584,0.789679 2.12874,-2.302237 3.4435,-3.02381 0.20533,-0.112689 0.52637,0.17818 0.68871,0 0.16232,-0.178179 -0.16233,-0.577771 0,-0.755952 0.91825,-1.007935 0.6887,1.259921 0.6887,-0.755951"
       style="fill:#ffffff;stroke:#000000;stroke-width:0.25253984px;stroke-linecap:butt;stroke-linejoin:miter;stroke-opacity:1" />
    <path
       inkscape:export-ydpi="47.722233"
       inkscape:export-xdpi="47.722233"
       inkscape:connector-curvature="0"
       id="use5116-3-23"
       d="m 134.71355,72.17188 c 2.3584,0.789679 2.12874,-2.302237 3.4435,-3.02381 0.20533,-0.112689 0.52637,0.17818 0.68871,0 0.16232,-0.178179 -0.16233,-0.577771 0,-0.755952 0.91825,-1.007935 0.6887,1.259921 0.6887,-0.755951"
       style="fill:#ffffff;stroke:#000000;stroke-width:0.25253984px;stroke-linecap:butt;stroke-linejoin:miter;stroke-opacity:1" />
    <path
       inkscape:export-ydpi="47.722233"
       inkscape:export-xdpi="47.722233"
       inkscape:connector-curvature="0"
       id="use5116-3-56"
       d="m 118.20137,85.779017 c 2.3584,0.789677 2.12874,-2.302231 3.4435,-3.023804 0.20533,-0.112689 0.52637,0.17818 0.68871,0 0.16232,-0.178179 -0.16233,-0.577771 0,-0.755952 0.91825,-1.007935 0.6887,1.259921 0.6887,-0.755951"
       style="fill:#ffffff;stroke:#000000;stroke-width:0.25253984px;stroke-linecap:butt;stroke-linejoin:miter;stroke-opacity:1" />
    <path
       inkscape:export-ydpi="47.722233"
       inkscape:export-xdpi="47.722233"
       inkscape:connector-curvature="0"
       id="use5116-3-143"
       d="m 1.038287,31.830718 c 2.3584,0.789679 2.12874,-2.302237 3.4435,-3.02381 0.2053302,-0.112689 0.52637,0.17818 0.6887102,0 0.16232,-0.178179 -0.1623301,-0.577771 0,-0.755952 0.9182499,-1.007935 0.6886998,1.259921 0.6886998,-0.755951"
       style="fill:#ffffff;stroke:#000000;stroke-width:0.25253984px;stroke-linecap:butt;stroke-linejoin:miter;stroke-opacity:1" />
    <path
       inkscape:export-ydpi="47.722233"
       inkscape:export-xdpi="47.722233"
       inkscape:connector-curvature="0"
       id="use5116-3-913"
       d="m 175.60609,65.130759 c 2.3584,0.789679 2.12874,-2.302237 3.4435,-3.02381 0.20533,-0.112689 0.52637,0.17818 0.68871,0 0.16232,-0.178179 -0.16233,-0.57777 0,-0.755951 0.91825,-1.007936 0.6887,1.25992 0.6887,-0.755952"
       style="fill:#ffffff;stroke:#000000;stroke-width:0.25253984px;stroke-linecap:butt;stroke-linejoin:miter;stroke-opacity:1" />
    <path
       inkscape:export-ydpi="47.722233"
       inkscape:export-xdpi="47.722233"
       inkscape:connector-curvature="0"
       id="use5116-3-74"
       d="m 183.95969,43.198606 c 2.3584,0.789679 2.12874,-2.302237 3.4435,-3.02381 0.20533,-0.112689 0.52637,0.17818 0.68871,0 0.16232,-0.178179 -0.16233,-0.577771 0,-0.755952 0.91825,-1.007935 0.6887,1.259921 0.6887,-0.755951"
       style="fill:#ffffff;stroke:#000000;stroke-width:0.25253984px;stroke-linecap:butt;stroke-linejoin:miter;stroke-opacity:1" />
    <path
       inkscape:export-ydpi="47.722233"
       inkscape:export-xdpi="47.722233"
       inkscape:connector-curvature="0"
       id="use5116-3-069"
       d="m 203.61446,75.40027 c 2.3584,0.78968 2.12874,-2.302236 3.4435,-3.023809 0.20533,-0.112689 0.52637,0.17818 0.68871,0 0.16232,-0.178179 -0.16233,-0.577771 0,-0.755952 0.91825,-1.007935 0.6887,1.259921 0.6887,-0.755951"
       style="fill:#ffffff;stroke:#000000;stroke-width:0.25253984px;stroke-linecap:butt;stroke-linejoin:miter;stroke-opacity:1" />
    <path
       inkscape:export-ydpi="47.722233"
       inkscape:export-xdpi="47.722233"
       inkscape:connector-curvature="0"
       id="use5116-3-68"
       d="m 204.66516,47.724786 c 2.3584,0.789679 2.12874,-2.302237 3.4435,-3.02381 0.20533,-0.112689 0.52637,0.17818 0.68871,0 0.16232,-0.178179 -0.16233,-0.577771 0,-0.755952 0.91825,-1.007935 0.6887,1.259921 0.6887,-0.755951"
       style="fill:#ffffff;stroke:#000000;stroke-width:0.25253984px;stroke-linecap:butt;stroke-linejoin:miter;stroke-opacity:1" />
    <path
       inkscape:export-ydpi="47.722233"
       inkscape:export-xdpi="47.722233"
       inkscape:connector-curvature="0"
       id="use5116-3-92-8"
       d="m 69.041833,68.098529 c 2.3584,0.789679 2.12874,-2.302237 3.4435,-3.02381 0.20533,-0.112689 0.52637,0.17818 0.68871,0 0.16232,-0.178179 -0.16233,-0.577771 0,-0.755952 0.91825,-1.007935 0.6887,1.259921 0.6887,-0.755951"
       style="fill:#ffffff;stroke:#000000;stroke-width:0.25253984px;stroke-linecap:butt;stroke-linejoin:miter;stroke-opacity:1" />
    <path
       inkscape:export-ydpi="47.722233"
       inkscape:export-xdpi="47.722233"
       inkscape:connector-curvature="0"
       id="use5116-3-92-1"
       d="m 21.572943,44.364085 c 2.3584,0.789679 2.12874,-2.302237 3.4435,-3.02381 0.20533,-0.112689 0.52637,0.17818 0.68871,0 0.16232,-0.178179 -0.16233,-0.577771 0,-0.755952 0.91825,-1.007935 0.6887,1.259921 0.6887,-0.755951"
       style="fill:#ffffff;stroke:#000000;stroke-width:0.25253984px;stroke-linecap:butt;stroke-linejoin:miter;stroke-opacity:1" />
    <path
       inkscape:export-ydpi="47.722233"
       inkscape:export-xdpi="47.722233"
       inkscape:connector-curvature="0"
       id="use5116-3-92-30"
       d="m 188.01835,72.05427 c 2.3584,0.789679 2.12874,-2.302237 3.4435,-3.02381 0.20533,-0.112689 0.52637,0.17818 0.68871,0 0.16232,-0.178179 -0.16233,-0.577771 0,-0.755952 0.91825,-1.007935 0.6887,1.259921 0.6887,-0.755951"
       style="fill:#ffffff;stroke:#000000;stroke-width:0.25253984px;stroke-linecap:butt;stroke-linejoin:miter;stroke-opacity:1" />
    <path
       inkscape:export-ydpi="47.722233"
       inkscape:export-xdpi="47.722233"
       inkscape:connector-curvature="0"
       id="use5116-3-92-17"
       d="m 100.38347,84.225781 c 2.3584,0.789679 2.12874,-2.302237 3.4435,-3.02381 0.20533,-0.112689 0.52637,0.17818 0.68871,0 0.16232,-0.178179 -0.16233,-0.577771 0,-0.755952 0.91825,-1.007935 0.6887,1.259921 0.6887,-0.755951"
       style="fill:#ffffff;stroke:#000000;stroke-width:0.25253984px;stroke-linecap:butt;stroke-linejoin:miter;stroke-opacity:1" />
    <path
       inkscape:export-ydpi="47.722233"
       inkscape:export-xdpi="47.722233"
       inkscape:connector-curvature="0"
       id="use5116-3-92-2"
       d="m 1.4899516,47.406962 c 2.3584,0.789679 2.12874,-2.302237 3.4435,-3.02381 0.2053302,-0.112689 0.52637,0.17818 0.6887102,0 0.16232,-0.178179 -0.1623301,-0.577771 0,-0.755952 0.9182499,-1.007935 0.6886998,1.259921 0.6886998,-0.755951"
       style="fill:#ffffff;stroke:#000000;stroke-width:0.25253984px;stroke-linecap:butt;stroke-linejoin:miter;stroke-opacity:1" />
    <path
       inkscape:export-ydpi="47.722233"
       inkscape:export-xdpi="47.722233"
       inkscape:connector-curvature="0"
       id="use5116-3-92-4"
       d="m 0.88137636,62.925638 c 2.35840004,0.789679 2.12874004,-2.302237 3.44350004,-3.02381 0.20533,-0.112689 0.52637,0.17818 0.68871,0 0.16232,-0.178179 -0.16233,-0.577771 0,-0.755952 0.91825,-1.007935 0.6887,1.259921 0.6887,-0.755951"
       style="fill:#ffffff;stroke:#000000;stroke-width:0.25253984px;stroke-linecap:butt;stroke-linejoin:miter;stroke-opacity:1" />
    <path
       inkscape:export-ydpi="47.722233"
       inkscape:export-xdpi="47.722233"
       inkscape:connector-curvature="0"
       id="use5116-3-92-9"
       d="m 153.32955,70.837119 c 2.35839,0.789679 2.12873,-2.302237 3.44349,-3.02381 0.20534,-0.112689 0.52637,0.17818 0.68872,0 0.16232,-0.178179 -0.16233,-0.577771 0,-0.755952 0.91825,-1.007935 0.68869,1.259921 0.68869,-0.755951"
       style="fill:#ffffff;stroke:#000000;stroke-width:0.25253984px;stroke-linecap:butt;stroke-linejoin:miter;stroke-opacity:1" />
    <path
       inkscape:export-ydpi="47.722233"
       inkscape:export-xdpi="47.722233"
       inkscape:connector-curvature="0"
       id="use5116-3-92-54"
       d="m 154.54669,92.745823 c 2.3584,0.78968 2.12874,-2.302224 3.4435,-3.023804 0.20533,-0.11269 0.52637,0.17818 0.68871,0 0.16232,-0.178177 -0.16233,-0.577767 0,-0.755947 0.91825,-1.007932 0.6887,1.259917 0.6887,-0.75595"
       style="fill:#ffffff;stroke:#000000;stroke-width:0.25253984px;stroke-linecap:butt;stroke-linejoin:miter;stroke-opacity:1" />
    <path
       inkscape:export-ydpi="47.722233"
       inkscape:export-xdpi="47.722233"
       inkscape:connector-curvature="0"
       id="use5116-3-92-82"
       d="m 55.044596,71.141406 c 2.3584,0.789679 2.12874,-2.302237 3.4435,-3.02381 0.20533,-0.112689 0.52637,0.17818 0.68871,0 0.16232,-0.178179 -0.16233,-0.57777 0,-0.755951 0.91825,-1.007936 0.6887,1.25992 0.6887,-0.755952"
       style="fill:#ffffff;stroke:#000000;stroke-width:0.25253984px;stroke-linecap:butt;stroke-linejoin:miter;stroke-opacity:1" />
    <path
       inkscape:export-ydpi="47.722233"
       inkscape:export-xdpi="47.722233"
       inkscape:connector-curvature="0"
       id="use5116-3-71-0"
       d="m 44.698812,16.065323 c 2.3584,0.789679 2.12874,-2.302237 3.4435,-3.02381 0.205331,-0.112689 0.52637,0.17818 0.688711,0 0.16232,-0.178179 -0.16233,-0.577771 0,-0.755952 0.91825,-1.007935 0.688699,1.259921 0.688699,-0.755951"
       style="fill:#ffffff;stroke:#000000;stroke-width:0.25253984px;stroke-linecap:butt;stroke-linejoin:miter;stroke-opacity:1" />
    <path
       inkscape:export-ydpi="47.722233"
       inkscape:export-xdpi="47.722233"
       inkscape:connector-curvature="0"
       id="use5116-3-71-1"
       d="m 50.175992,26.715395 c 2.3584,0.789679 2.12874,-2.302237 3.4435,-3.02381 0.20533,-0.112689 0.52637,0.17818 0.68871,0 0.16232,-0.178179 -0.16233,-0.577771 0,-0.755952 0.91825,-1.007935 0.6887,1.259921 0.6887,-0.755951"
       style="fill:#ffffff;stroke:#000000;stroke-width:0.25253984px;stroke-linecap:butt;stroke-linejoin:miter;stroke-opacity:1" />
  </g>
  <g
     inkscape:groupmode="layer"
     id="layer2"
     inkscape:label="text"
     style="display:inline">
    <text
       xml:space="preserve"
       style="font-style:normal;font-weight:normal;font-size:10.10159397px;line-height:1.25;font-family:sans-serif;letter-spacing:0px;word-spacing:0px;fill:#000000;fill-opacity:1;stroke:none;stroke-width:0.09;stroke-miterlimit:4;stroke-dasharray:none"
       x="59.995625"
       y="57.771912"
       id="text821"
       inkscape:export-xdpi="47.722233"
       inkscape:export-ydpi="47.722233"
       transform="scale(0.95448136,1.0476894)"
       inkscape:transform-center-x="21.166667"
       inkscape:transform-center-y="44.60119"><tspan
         sodipodi:role="line"
         id="tspan819"
         x="59.995625"
         y="57.771912"
         style="font-size:33.67198181px;fill:#ffffff;stroke-width:0.09;stroke-miterlimit:4;stroke-dasharray:none">iCook</tspan></text>
  </g>
</svg>
